<svg width="67" height="67" viewBox="0 0 67 67" fill="none" xmlns="http://www.w3.org/2000/svg">
<circle cx="33.5" cy="33.5" r="33.5" fill="black"/>
<path d="M47.2676 24.2177C47.0477 23.9514 46.7199 23.7975 46.3748 23.7975H29.3006C28.6602 23.7975 28.1411 24.3166 28.1411 24.9571C28.1411 25.5975 28.6602 26.1166 29.3006 26.1166H44.9745L42.6987 38.0982H27.9923L23.3473 18.887C23.2213 18.3664 22.7556 18 22.2203 18H16.1595C15.5191 18 15 18.5191 15 19.1595C15 19.7999 15.5191 20.319 16.1595 20.319H21.3073L25.9527 39.5302C26.0783 40.0508 26.5441 40.4172 27.0798 40.4172H43.6592C44.2162 40.4172 44.6946 40.0214 44.7982 39.4741L47.5138 25.1735C47.5783 24.8341 47.4883 24.4836 47.2676 24.2177Z" fill="white"/>
<path d="M40.6576 41.4638C38.4422 41.4638 36.6395 43.2665 36.6395 45.4819C36.6395 47.6974 38.4418 49.5 40.6576 49.5C42.8734 49.5 44.6757 47.6977 44.6757 45.4819C44.6757 43.2661 42.873 41.4638 40.6576 41.4638ZM40.6576 47.181C39.7207 47.181 38.9585 46.4188 38.9585 45.4819C38.9585 44.545 39.7207 43.7828 40.6576 43.7828C41.5945 43.7828 42.3567 44.5454 42.3567 45.4819C42.3567 46.4184 41.5945 47.181 40.6576 47.181Z" fill="white"/>
<path d="M29.938 41.4638C27.7225 41.4638 25.9199 43.2665 25.9199 45.4819C25.9199 47.6974 27.7225 49.5 29.938 49.5C32.1534 49.5 33.956 47.6977 33.956 45.4819C33.956 43.2661 32.1538 41.4638 29.938 41.4638ZM29.938 47.181C29.0011 47.181 28.2389 46.4188 28.2389 45.4819C28.2389 44.545 29.0011 43.7828 29.938 43.7828C30.8748 43.7828 31.637 44.5454 31.637 45.4819C31.637 46.4184 30.8748 47.181 29.938 47.181Z" fill="white"/>
</svg>
