<svg width="672" height="816" viewBox="0 0 672 816" fill="none" xmlns="http://www.w3.org/2000/svg">
<path d="M52.3596 261.1L19.6126 81.2435H54.3748L74.2749 214.247H74.7787L95.9384 81.2435H130.701L151.86 214.247H152.364L172.264 81.2435H207.026L174.279 261.1H133.723L113.571 130.616H113.068L92.9156 261.1H52.3596ZM221.577 261.1V81.2435H257.851V150.012H300.17V81.2435H336.444V261.1H300.17V181.248H257.851V261.1H221.577ZM399.586 261.1H363.312V81.2435H399.586V261.1ZM416.92 81.2435H531.786V110.968H492.49V261.1H456.216V110.968H416.92V81.2435ZM547.522 81.2435H648.03V110.968H583.796V153.287H644.252V183.011H583.796V231.376H650.549V261.1H547.522V81.2435Z" fill="#BCD432"/>
<path d="M127.302 592.246H92.5396C92.5396 578.896 86.494 562.018 71.8838 562.018C54.2508 562.018 47.1976 580.155 47.1976 624.993C47.1976 668.32 51.228 695.525 72.1357 695.525C80.7003 695.525 94.5548 686.205 94.5548 666.809V648.42H70.6243V621.719H129.317V718.7H102.616V702.075H102.112C93.5472 716.181 81.2041 722.227 64.3268 722.227C19.7405 722.227 10.924 688.976 10.924 626.757C10.924 566.301 25.0304 535.317 71.38 535.317C111.18 535.317 127.302 555.721 127.302 592.246ZM188.933 565.545V617.436H204.047C221.428 617.436 231.252 609.879 231.252 590.483C231.252 573.858 222.435 565.545 206.062 565.545H188.933ZM152.659 718.7V538.844H219.665C249.389 538.844 267.526 554.461 267.526 585.193C267.526 609.124 257.953 625.245 237.549 629.528V630.031C262.236 633.306 266.014 646.909 266.518 684.946C266.77 703.838 267.777 713.662 274.579 717.189V718.7H235.282C231.756 713.662 231 706.861 230.748 699.808L229.741 665.297C229.237 651.191 222.939 642.626 208.329 642.626H188.933V718.7H152.659ZM280.036 718.7L327.645 538.844H372.483L420.092 718.7H382.307L373.995 680.663H326.134L317.821 718.7H280.036ZM349.812 570.079L332.431 650.939H367.697L350.316 570.079H349.812ZM432.603 718.7V538.844H496.081C532.859 538.844 545.454 565.797 545.454 592.75C545.454 630.031 522.531 646.909 488.273 646.909H468.876V718.7H432.603ZM468.876 565.545V620.207H484.998C499.356 620.207 509.18 611.643 509.18 593.254C509.18 575.621 502.127 565.545 483.99 565.545H468.876ZM563.227 538.844H663.735V568.568H599.5V610.887H659.956V640.611H599.5V688.976H666.254V718.7H563.227V538.844Z" fill="#BCD432"/>
<path d="M122.515 36V31.38L134.087 9.776H123.307V4.584H141.391V9.38L129.643 30.808H141.567V36H122.515ZM144.843 4.584H162.399V9.776H151.179V17.168H161.739V22.36H151.179V30.808H162.839V36H144.843V4.584ZM172.363 9.248V18.312H175.003C178.039 18.312 179.755 16.992 179.755 13.604C179.755 10.7 178.215 9.248 175.355 9.248H172.363ZM166.027 36V4.584H177.731C182.923 4.584 186.091 7.312 186.091 12.68C186.091 16.86 184.419 19.676 180.855 20.424V20.512C185.167 21.084 185.827 23.46 185.915 30.104C185.959 33.404 186.135 35.12 187.323 35.736V36H180.459C179.843 35.12 179.711 33.932 179.667 32.7L179.491 26.672C179.403 24.208 178.303 22.712 175.751 22.712H172.363V36H166.027ZM189.816 20.292C189.816 10.744 191.004 3.968 200.508 3.968C210.012 3.968 211.2 10.744 211.2 20.292C211.2 29.84 210.012 36.616 200.508 36.616C191.004 36.616 189.816 29.84 189.816 20.292ZM196.152 20.292C196.152 28.74 196.768 31.952 200.508 31.952C204.248 31.952 204.864 28.74 204.864 20.292C204.864 11.888 204.248 8.632 200.508 8.632C196.768 8.632 196.152 11.888 196.152 20.292ZM225.495 36V4.584H236.583C243.007 4.584 245.207 9.292 245.207 14C245.207 20.512 241.203 23.46 235.219 23.46H231.831V36H225.495ZM231.831 9.248V18.796H234.647C237.155 18.796 238.871 17.3 238.871 14.088C238.871 11.008 237.639 9.248 234.471 9.248H231.831ZM254.648 9.248V18.312H257.288C260.324 18.312 262.04 16.992 262.04 13.604C262.04 10.7 260.5 9.248 257.64 9.248H254.648ZM248.312 36V4.584H260.016C265.208 4.584 268.376 7.312 268.376 12.68C268.376 16.86 266.704 19.676 263.14 20.424V20.512C267.452 21.084 268.112 23.46 268.2 30.104C268.244 33.404 268.42 35.12 269.608 35.736V36H262.744C262.128 35.12 261.996 33.932 261.952 32.7L261.776 26.672C261.688 24.208 260.588 22.712 258.036 22.712H254.648V36H248.312ZM272.101 20.292C272.101 10.744 273.289 3.968 282.793 3.968C292.297 3.968 293.485 10.744 293.485 20.292C293.485 29.84 292.297 36.616 282.793 36.616C273.289 36.616 272.101 29.84 272.101 20.292ZM278.437 20.292C278.437 28.74 279.053 31.952 282.793 31.952C286.533 31.952 287.149 28.74 287.149 20.292C287.149 11.888 286.533 8.632 282.793 8.632C279.053 8.632 278.437 11.888 278.437 20.292ZM296.55 20.292C296.55 10.744 297.738 3.968 307.242 3.968C316.746 3.968 317.934 10.744 317.934 20.292C317.934 29.84 316.746 36.616 307.242 36.616C297.738 36.616 296.55 29.84 296.55 20.292ZM302.886 20.292C302.886 28.74 303.502 31.952 307.242 31.952C310.982 31.952 311.598 28.74 311.598 20.292C311.598 11.888 310.982 8.632 307.242 8.632C303.502 8.632 302.886 11.888 302.886 20.292ZM321.659 36V4.584H339.215V9.776H327.995V17.168H338.555V22.36H327.995V36H321.659ZM352.729 36V4.584H362.145L366.633 26.76H366.721L371.253 4.584H380.625V36H374.817V10.92H374.729L369.141 36H364.213L358.625 10.92H358.537V36H352.729ZM382.967 36L391.283 4.584H399.115L407.431 36H400.831L399.379 29.356H391.019L389.567 36H382.967ZM395.155 10.04L392.119 24.164H398.279L395.243 10.04H395.155ZM427.173 36H409.617V4.584H415.953V30.808H427.173V36ZM425.046 4.584H445.11V9.776H438.246V36H431.91V9.776H425.046V4.584ZM458.429 36V4.584H469.033C474.225 4.584 477.965 6.52 477.965 12.548C477.965 15.936 476.337 18.532 473.213 19.412V19.5C476.689 19.984 478.933 22.624 478.933 26.804C478.933 31.732 476.513 36 469.121 36H458.429ZM464.765 9.248V17.476H466.569C470.045 17.476 471.629 16.288 471.629 13.34C471.629 10.348 470.177 9.248 467.053 9.248H464.765ZM464.765 21.876V31.336H467.229C470.265 31.336 472.333 30.236 472.333 26.584C472.333 22.932 470.265 21.876 467.493 21.876H464.765ZM489.214 9.248V18.312H491.854C494.89 18.312 496.606 16.992 496.606 13.604C496.606 10.7 495.066 9.248 492.206 9.248H489.214ZM482.878 36V4.584H494.582C499.774 4.584 502.942 7.312 502.942 12.68C502.942 16.86 501.27 19.676 497.706 20.424V20.512C502.018 21.084 502.678 23.46 502.766 30.104C502.81 33.404 502.986 35.12 504.174 35.736V36H497.31C496.694 35.12 496.562 33.932 496.518 32.7L496.342 26.672C496.254 24.208 495.154 22.712 492.602 22.712H489.214V36H482.878ZM507.327 4.584H524.883V9.776H513.663V17.168H524.223V22.36H513.663V30.808H525.323V36H507.327V4.584ZM532.383 36L526.663 4.584H532.735L536.211 27.816H536.299L539.995 4.584H546.067L549.763 27.816H549.851L553.327 4.584H559.399L553.679 36H546.595L543.075 13.208H542.987L539.467 36H532.383Z" fill="#BCD432"/>
<path d="M214.747 61.5V50.5044H217.165V59.4672H222.524V61.5H214.747ZM223.398 56.0484C223.398 52.7836 225.4 50.2426 228.804 50.2426C232.207 50.2426 234.209 52.7836 234.209 56.0484C234.209 59.2208 232.207 61.7618 228.804 61.7618C225.4 61.7618 223.398 59.2208 223.398 56.0484ZM225.816 56.0484C225.816 57.881 226.632 59.729 228.804 59.729C230.975 59.729 231.791 57.881 231.791 56.0484C231.791 54.1234 230.975 52.2754 228.804 52.2754C226.632 52.2754 225.816 54.1234 225.816 56.0484ZM235.862 61.5V50.5044H241.791C243.762 50.5044 245.009 51.875 245.009 53.5382C245.009 54.8318 244.486 55.802 243.269 56.2948V56.3256C244.455 56.6336 244.794 57.7886 244.871 58.8974C244.917 59.5904 244.902 60.884 245.333 61.5H242.915C242.622 60.807 242.653 59.7444 242.53 58.8666C242.361 57.7116 241.914 57.2034 240.697 57.2034H238.28V61.5H235.862ZM238.28 52.3832V55.4786H240.928C242.006 55.4786 242.592 55.0166 242.592 53.9078C242.592 52.8452 242.006 52.3832 240.928 52.3832H238.28ZM246.976 61.5V50.5044H255.199V52.5372H249.393V54.8934H254.722V56.7722H249.393V59.4672H255.322V61.5H246.976ZM256.962 61.5V50.5044H260.365L262.937 58.0658H262.968L265.401 50.5044H268.804V61.5H266.54V53.7076H266.51L263.815 61.5H261.951L259.256 53.7846H259.225V61.5H256.962ZM275.219 61.5V50.5044H277.637V61.5H275.219ZM279.761 61.5V50.5044H284.72C287.461 50.5044 288.523 52.2446 288.523 54.031C288.523 55.8174 287.461 57.5576 284.72 57.5576H282.179V61.5H279.761ZM282.179 52.3832V55.6788H284.057C285.182 55.6788 286.183 55.4324 286.183 54.031C286.183 52.6296 285.182 52.3832 284.057 52.3832H282.179ZM289.34 57.8502H291.68C291.68 59.3132 292.82 59.883 294.114 59.883C294.961 59.883 296.254 59.6366 296.254 58.5124C296.254 57.3266 294.606 57.1264 292.989 56.6952C291.357 56.264 289.709 55.6326 289.709 53.569C289.709 51.3206 291.834 50.2426 293.821 50.2426C296.116 50.2426 298.225 51.2436 298.225 53.7846H295.885C295.808 52.4602 294.868 52.1214 293.713 52.1214C292.943 52.1214 292.05 52.4448 292.05 53.3688C292.05 54.2158 292.574 54.3236 295.33 55.032C296.131 55.2322 298.595 55.7404 298.595 58.2352C298.595 60.2526 297.009 61.7618 294.021 61.7618C291.588 61.7618 289.309 60.5606 289.34 57.8502ZM309.366 50.5044V57.342C309.366 60.3142 307.61 61.7618 304.669 61.7618C301.712 61.7618 299.987 60.3296 299.987 57.342V50.5044H302.405V57.342C302.405 58.5432 302.713 59.729 304.669 59.729C306.394 59.729 306.948 58.9744 306.948 57.342V50.5044H309.366ZM311.448 61.5V50.5044H314.852L317.423 58.0658H317.454L319.887 50.5044H323.291V61.5H321.027V53.7076H320.996L318.301 61.5H316.438L313.743 53.7846H313.712V61.5H311.448ZM329.706 61.5V50.5044H334.449C337.298 50.5044 339.438 52.2908 339.438 55.9406C339.438 59.1284 337.806 61.5 334.449 61.5H329.706ZM332.123 52.5372V59.4672H334.279C335.681 59.4672 337.021 58.6048 337.021 56.1716C337.021 53.954 336.251 52.5372 333.848 52.5372H332.123ZM340.643 56.0484C340.643 52.7836 342.645 50.2426 346.048 50.2426C349.452 50.2426 351.454 52.7836 351.454 56.0484C351.454 59.2208 349.452 61.7618 346.048 61.7618C342.645 61.7618 340.643 59.2208 340.643 56.0484ZM343.061 56.0484C343.061 57.881 343.877 59.729 346.048 59.729C348.22 59.729 349.036 57.881 349.036 56.0484C349.036 54.1234 348.22 52.2754 346.048 52.2754C343.877 52.2754 343.061 54.1234 343.061 56.0484ZM353.106 61.5V50.5044H355.524V59.4672H360.883V61.5H353.106ZM361.758 56.0484C361.758 52.7836 363.76 50.2426 367.163 50.2426C370.566 50.2426 372.568 52.7836 372.568 56.0484C372.568 59.2208 370.566 61.7618 367.163 61.7618C363.76 61.7618 361.758 59.2208 361.758 56.0484ZM364.175 56.0484C364.175 57.881 364.992 59.729 367.163 59.729C369.334 59.729 370.151 57.881 370.151 56.0484C370.151 54.1234 369.334 52.2754 367.163 52.2754C364.992 52.2754 364.175 54.1234 364.175 56.0484ZM374.221 61.5V50.5044H380.15C382.121 50.5044 383.369 51.875 383.369 53.5382C383.369 54.8318 382.845 55.802 381.629 56.2948V56.3256C382.814 56.6336 383.153 57.7886 383.23 58.8974C383.276 59.5904 383.261 60.884 383.692 61.5H381.274C380.982 60.807 381.013 59.7444 380.889 58.8666C380.72 57.7116 380.273 57.2034 379.057 57.2034H376.639V61.5H374.221ZM376.639 52.3832V55.4786H379.288C380.366 55.4786 380.951 55.0166 380.951 53.9078C380.951 52.8452 380.366 52.3832 379.288 52.3832H376.639ZM388.928 57.8502H391.269C391.269 59.3132 392.409 59.883 393.702 59.883C394.549 59.883 395.843 59.6366 395.843 58.5124C395.843 57.3266 394.195 57.1264 392.578 56.6952C390.946 56.264 389.298 55.6326 389.298 53.569C389.298 51.3206 391.423 50.2426 393.41 50.2426C395.704 50.2426 397.814 51.2436 397.814 53.7846H395.473C395.396 52.4602 394.457 52.1214 393.302 52.1214C392.532 52.1214 391.639 52.4448 391.639 53.3688C391.639 54.2158 392.162 54.3236 394.919 55.032C395.72 55.2322 398.184 55.7404 398.184 58.2352C398.184 60.2526 396.597 61.7618 393.61 61.7618C391.177 61.7618 388.897 60.5606 388.928 57.8502ZM399.622 61.5V50.5044H402.04V61.5H399.622ZM406.597 61.5V52.5372H403.302V50.5044H412.311V52.5372H409.015V61.5H406.597ZM416.694 61.5L420.868 50.5044H423.347L427.459 61.5H424.949L424.117 59.0514H420.005L419.143 61.5H416.694ZM422.069 53.2148L420.637 57.2496H423.486L422.1 53.2148H422.069ZM428.407 61.5V50.5044H431.81L434.382 58.0658H434.413L436.846 50.5044H440.25V61.5H437.986V53.7076H437.955L435.26 61.5H433.397L430.702 53.7846H430.671V61.5H428.407ZM442.378 61.5V50.5044H450.602V52.5372H444.796V54.8934H450.124V56.7722H444.796V59.4672H450.725V61.5H442.378ZM454.797 61.5V52.5372H451.502V50.5044H460.511V52.5372H457.215V61.5H454.797Z" fill="#BCD432"/>
</svg>
