<svg width="191" height="62" viewBox="0 0 191 62" fill="none" xmlns="http://www.w3.org/2000/svg">
<path d="M190.678 49.2786C190.132 50.352 189.659 51.4694 189.019 52.4876C188.127 53.9202 186.666 54.5527 185.075 54.8712C182.626 55.3615 180.185 55.9731 177.71 56.22C174.348 56.5506 170.955 56.7941 167.577 56.3015C166.257 56.1087 165.1 55.5301 164.37 54.372C163.472 52.9548 162.268 51.8231 161.035 50.7299C160.408 50.179 160.15 49.5629 160.063 48.7574C159.653 44.8443 159.197 40.9334 158.76 37.0236C158.736 36.8032 158.733 36.5828 158.715 36.2952C159.157 36.2676 159.6 36.25 160.027 36.2125C161.877 36.0494 163.726 35.8819 165.576 35.7133C165.814 35.6913 166.053 35.6692 166.292 35.6681C167.84 35.6681 169.389 35.7001 170.937 35.6582C173.156 35.5976 175.373 35.4808 177.643 35.386C178.098 36.4274 178.813 36.7811 180.251 36.5365C180.12 35.4918 180.003 34.4427 179.841 33.3981C179.817 33.2394 179.612 33.0818 179.458 32.9716C178.241 32.1088 176.845 31.7076 175.411 31.4674C172.947 31.0553 170.475 30.6674 167.994 30.3731C163.738 29.8695 161.221 27.4265 159.955 23.4902C159.26 21.3325 158.944 19.1109 158.738 16.8662C158.72 16.5367 158.683 16.2085 158.628 15.8833C158.378 14.6865 158.628 13.5515 159.07 12.455C159.704 10.8792 160.379 9.31989 161.05 7.75839C161.901 5.77484 163.514 4.72686 165.531 4.18799C168.165 3.48383 170.863 3.34388 173.572 3.30641C175.792 3.27115 177.98 3.48493 180.11 4.14722C183.894 5.32192 186.356 7.86749 187.79 11.4798C188.778 13.9669 189.25 16.5709 189.56 19.2123C189.579 19.3754 189.595 19.5429 189.612 19.7038C189.628 19.8647 189.641 20.0201 189.665 20.2691C186.705 20.0487 183.787 19.9705 180.958 19.0437L180.878 19.587L180.781 19.7148C179.646 16.6293 177.32 15.6265 174.222 15.8766C174.185 16.648 174.128 17.4437 174.127 18.2415C174.127 18.3958 174.318 18.5886 174.468 18.6999C175.862 19.7192 177.258 20.7342 178.671 21.7303C180.22 22.8224 181.796 23.866 183.325 24.9779C186.434 27.2358 188.173 30.3566 189.013 34.0383C189.644 36.7933 189.867 39.6044 190.126 42.4133C190.266 43.9385 190.491 45.4559 190.679 46.9766L190.678 49.2786Z" fill="#DEDEDE"/>
<path d="M74.5066 0L81.263 1.70696C81.2741 1.66068 81.2863 1.6155 81.2973 1.57032C81.3183 1.60007 81.3537 1.62762 81.357 1.65847C81.503 2.9544 81.7143 4.24812 81.7718 5.54845C81.8392 7.06367 81.7618 8.58439 81.7618 10.1029C81.7618 13.9135 81.7541 17.7242 81.7917 21.5348C81.7917 22.2026 82.035 22.8649 82.1124 23.5349C82.2418 24.6424 82.3745 25.7521 82.4221 26.864C82.5968 30.9413 82.8191 35.0307 82.8501 39.1146C82.8623 40.7004 82.3967 42.2883 82.1865 43.8796C82.0372 44.9959 81.9465 46.1199 81.826 47.2792C83.0613 47.3618 84.1574 47.4312 85.2545 47.5095C86.3008 47.5833 87.347 47.7354 88.3933 47.7299C91.1339 47.7222 93.8745 47.6616 96.614 47.5976C100.186 47.5139 103.759 47.439 107.328 47.2957C109.421 47.2108 111.519 47.0753 113.6 46.8285C116.658 46.4681 119.644 46.7028 122.628 47.4357C124.655 47.9326 126.72 48.2643 128.884 48.6908C128.953 52.8012 128.11 56.9292 126.823 61.0473C125.816 60.9613 124.794 60.8765 123.773 60.7839C120.09 60.4533 116.414 60.0467 112.705 60.0356C108.286 60.0232 103.867 59.9445 99.4487 59.7998C97.4668 59.7337 95.4882 59.4769 93.5184 59.2268C90.1375 58.8138 86.726 58.7065 83.3257 58.9061C80.6901 59.0472 78.1021 59.4571 75.5241 59.9894C74.3661 60.2263 73.1905 60.3034 72.0314 59.9133C71.6543 59.7866 71.4784 59.6004 71.505 59.164C71.5791 57.7557 71.7074 56.3374 71.6156 54.9357C71.4877 53.2045 71.2662 51.4814 70.952 49.774C70.6478 48.0252 70.5461 46.2852 70.7673 44.5275C71.1676 41.3373 71.2097 38.1361 71.192 34.9249C71.1721 30.1049 71.1555 25.2848 71.0592 20.4659C71.0106 17.5754 70.7219 14.686 70.6788 11.7911C70.6412 9.17285 70.8104 6.55345 70.8535 3.93295C70.8657 3.18581 70.7429 2.43647 70.7109 1.68712C70.6943 1.23752 70.4974 0.995084 70.0639 0.900314C69.8249 0.828638 69.5904 0.7429 69.3616 0.643554L72.6275 0H74.5066Z" fill="#DEDEDE"/>
<path d="M116.859 43.6776C115.73 38.0057 115.403 32.3173 115.421 26.4372C115.224 26.7259 115.112 26.878 115.012 27.0378C113.552 29.4114 112.083 31.7763 110.645 34.1664C110.379 34.6072 110.105 34.6447 109.783 34.3284C109.209 33.7631 108.643 33.1857 108.124 32.5653C107.327 31.6065 106.585 30.6015 105.802 29.6318C105.58 29.3574 105.287 29.1392 105.027 28.8957L104.893 28.9574C104.972 34.1661 105.05 39.3795 105.129 44.5977C104.244 44.5977 103.403 44.633 102.565 44.5911C99.5693 44.4435 96.5754 44.2143 93.5771 44.1272C92.2057 44.0875 90.8276 44.309 89.4518 44.4104C89.2306 44.4269 89.0094 44.4391 88.7329 44.4578C88.8269 43.5938 88.9143 42.7674 89.0094 41.942C89.402 38.5259 89.2505 35.0954 89.1742 31.6705C89.089 27.8224 89.0182 23.9732 88.8711 20.1273C88.7926 18.0611 88.5869 15.9993 88.4 13.9397C88.1788 11.4779 87.9576 9.01384 87.6446 6.56305C87.5064 5.49854 87.7419 4.53982 88.0815 3.56016C88.0815 3.70011 88.0925 3.84117 88.0815 3.98112C88.066 4.1387 88.0306 4.29408 87.9919 4.52439C89.4452 4.22025 90.8674 4.01858 92.2278 3.61857C95.3975 2.68519 98.6359 2.86702 101.869 2.88024C102.735 2.88024 103.602 2.92873 104.465 2.89457C105.032 2.87143 105.443 3.06427 105.699 3.54033C106.553 5.13525 107.397 6.73606 108.229 8.34274C108.353 8.57966 108.427 8.84304 108.621 9.09208C108.713 8.30968 108.805 7.52728 108.896 6.74487C109.045 5.49082 109.198 4.23678 109.338 2.98273C109.399 2.45708 109.634 2.25432 110.215 2.20143C112.695 1.97442 115.134 2.27416 117.58 2.60034C120.077 2.93093 122.581 3.21524 125.083 3.51939L126.189 3.65714C126.189 4.51668 126.135 5.37732 126.198 6.22915C126.49 10.1555 126.723 14.0895 127.151 18.0016C127.573 21.8585 128.25 25.6812 128.716 29.5315C128.899 31.0313 128.851 32.5631 128.84 34.0805C128.82 36.5181 128.73 38.9556 128.701 41.3932C128.701 41.791 128.555 41.9354 128.183 42.0742C126.535 42.6946 124.803 42.5624 123.107 42.6373C121.076 42.7277 119.073 42.872 117.157 43.6038C117.059 43.6343 116.96 43.659 116.859 43.6776Z" fill="#DEDEDE"/>
<path d="M48.2273 51.6471C47.5195 54.0097 46.4002 56.1277 45.2412 58.2258C45.0996 58.4826 44.9094 58.7173 44.7988 58.9873C44.4603 59.8436 43.8034 59.9449 43.0071 59.8061C41.5052 59.5427 40.0055 59.2683 38.4991 59.0347C37.935 58.9592 37.3661 58.9249 36.797 58.9322C35.1049 58.919 33.4116 58.9322 31.6509 58.9322C31.8278 58.368 32.0015 57.8302 32.1641 57.298C32.9836 54.6048 33.729 51.8862 34.6426 49.2249C35.3238 47.2414 36.2086 45.3228 37.0248 43.3844C38.8685 39.0052 40.1747 34.4584 41.3382 29.8632C42.5227 25.1853 43.5501 20.4667 44.8021 15.8075C45.4834 13.273 46.5252 10.8343 47.3326 8.32949C47.7505 6.9861 48.0942 5.62091 48.3622 4.24006C48.4496 3.818 48.2516 3.33864 48.1831 2.86038C49.7049 3.19869 51.1748 2.44273 52.7176 2.28956C54.4075 2.12096 56.1284 2.21573 57.8339 2.26201C59.0272 2.29397 60.2173 2.46367 61.4117 2.51546C61.8187 2.5331 62.0045 2.67415 62.1195 3.03119C62.427 3.98881 62.7488 4.94091 63.0674 5.89633C63.7498 7.94159 64.5051 9.96592 65.0991 12.0354C65.9551 15.0185 66.1907 18.0963 66.0049 21.1818C65.8766 23.2965 65.5381 25.3969 65.3612 27.5094C65.2506 28.8417 65.2506 30.1828 65.2218 31.5206C65.151 34.6711 65.1112 37.8239 65.0172 40.9744C64.9774 42.2902 65.0825 43.5839 65.4861 44.8258C66.1553 46.8989 66.5705 49.0449 66.7226 51.2173C66.8277 52.6499 67.2635 53.9722 67.7932 55.2803C67.9757 55.7299 68.1007 56.2015 68.2799 56.7514C67.0257 56.7514 65.8843 56.812 64.7507 56.7382C62.6183 56.5983 60.4812 56.9306 58.493 57.7112C57.7266 58.0077 56.9192 58.1983 56.0886 58.4496C55.9637 57.363 55.8807 56.3106 55.7126 55.2726C55.5511 54.2808 55.3056 53.3055 55.0877 52.3259C55.0003 51.9336 54.7769 51.7749 54.3357 51.8013C53.0505 51.8697 51.762 51.9181 50.4747 51.9016C49.7281 51.8851 48.9838 51.7352 48.2273 51.6471ZM52.983 35.3599H52.8647L49.7757 44.0302H54.7238L52.983 35.3599Z" fill="#DEDEDE"/>
<path d="M17.0974 42.898C16.8131 43.7598 16.6727 44.5576 16.3055 45.232C15.3809 46.9324 15.0889 48.776 14.8069 50.6427C14.4563 52.9888 14.057 55.3283 13.6611 57.778C12.1868 57.5708 10.7369 57.5091 9.36987 57.1444C7.02851 56.5173 4.72475 56.568 2.38339 57.022C1.63022 57.1686 0.862665 57.2424 0 57.3637C0.45124 56.1735 0.875937 55.0737 1.28515 53.9685C2.92864 49.5264 4.02245 44.9532 4.68051 40.2643C5.27221 36.0481 5.81635 31.8121 7.10814 27.7326C7.72527 25.7865 8.52269 23.8911 9.21503 21.9638C10.2204 19.1626 10.6174 16.25 10.7302 13.2945C10.7955 11.5578 10.8087 9.81781 10.8596 8.08109C10.8729 7.60504 10.9437 7.13229 10.9702 6.65734C11.0377 5.41762 11.8694 4.75974 12.878 4.33107C13.6037 4.02582 14.3681 3.82151 15.1497 3.72388C16.9193 3.50348 18.6955 3.29631 20.4761 3.22248C24.9244 3.03625 28.698 4.65505 31.9407 7.63038C34.6869 10.1473 36.7893 13.1832 38.8973 16.2071C39.426 16.9663 39.7633 17.9085 39.9934 18.8165C40.5851 21.1461 40.2212 23.4448 39.4249 25.6664C38.2328 28.9353 36.7137 32.0763 34.8904 35.042C33.0489 38.0703 30.1568 39.8489 26.9273 41.1029C23.9561 42.2553 20.7999 42.862 17.6116 42.8936C17.4059 42.9002 17.2068 42.898 17.0974 42.898ZM21.6684 19.2309C20.976 19.8921 19.7163 24.2416 19.8933 25.5121C21.1298 25.6576 22.5554 24.9612 23.1603 23.8151C24.2121 21.8194 23.3826 20.3604 21.6684 19.2309Z" fill="#DEDEDE"/>
<path d="M159.937 55.4702L147.077 56.9722C146.369 54.9346 145.655 52.8078 144.887 50.6997C144.585 49.8711 144.53 49.8942 143.685 50.0771C142.554 50.3229 141.425 50.5752 140.289 50.7934C139.964 50.8562 139.837 50.9543 139.808 51.3091C139.697 52.6591 139.55 54.0057 139.391 55.3512C139.374 55.4381 139.336 55.5199 139.282 55.59C139.227 55.6602 139.157 55.7168 139.077 55.7556C136.708 56.4814 134.335 57.1918 131.958 57.8868C131.568 57.9919 131.167 58.0522 130.763 58.0664C130.21 58.0962 130.012 57.889 130.138 57.3193C130.362 56.2479 130.641 55.1889 130.976 54.1467C131.538 52.4662 132.241 50.832 132.763 49.1415C133.011 48.336 133.02 47.4467 133.061 46.5916C133.202 43.6636 133.226 40.7269 133.462 37.8066C133.61 35.9751 133.994 34.1536 134.382 32.3507C135.518 27.0866 137.405 22.0418 138.961 16.8999C139.742 14.318 140.236 11.6479 140.826 9.00979C141.268 7.02623 141.656 5.04267 142.059 3.0492C142.122 2.73734 142.263 2.58747 142.592 2.5478C146.278 2.10701 149.965 1.65961 153.652 1.20559C154.508 1.0954 155.364 0.985198 156.233 0.875C156.233 1.61112 156.27 2.31859 156.226 3.02165C156.116 4.81346 155.971 6.60197 155.841 8.39158C155.745 9.89255 155.867 11.3996 156.204 12.8656C156.567 14.5108 156.565 16.1715 156.553 17.8377C156.525 21.4853 156.477 25.1328 156.534 28.7792C156.557 30.2735 156.85 31.7623 156.976 33.2566C157.14 35.1894 157.266 37.1256 157.399 39.0607C157.539 41.1059 157.539 43.171 157.834 45.1943C158.206 47.7398 158.81 50.2534 159.326 52.7781C159.518 53.7059 159.744 54.625 159.937 55.4702ZM142.071 36.6462L141.96 36.6529C141.28 39.3031 140.6 41.9523 139.898 44.6852L143.437 44.4648C143.31 44.2389 143.08 44.1683 143.022 44.024C142.814 43.5226 142.574 43.0068 142.511 42.4812C142.371 41.301 142.333 40.1087 142.247 38.9218C142.197 38.1637 142.132 37.4055 142.071 36.6462Z" fill="#DEDEDE"/>
</svg>
