<svg width="206" height="66" viewBox="0 0 206 66" fill="none" xmlns="http://www.w3.org/2000/svg">
<path d="M205.768 53.1794C205.18 54.3376 204.669 55.5435 203.978 56.6423C203.016 58.1882 201.44 58.8708 199.722 59.2145C197.08 59.7437 194.446 60.4037 191.775 60.6701C188.146 61.0268 184.485 61.2896 180.84 60.7581C179.415 60.55 178.166 59.9256 177.378 58.6758C176.409 57.1465 175.111 55.9252 173.78 54.7455C173.103 54.1509 172.825 53.4862 172.731 52.6169C172.288 48.3941 171.796 44.1736 171.325 39.9544C171.299 39.7165 171.295 39.4787 171.276 39.1683C171.753 39.1386 172.231 39.1196 172.692 39.0791C174.688 38.9031 176.684 38.7224 178.681 38.5404C178.937 38.5167 179.195 38.4929 179.453 38.4917C181.124 38.4917 182.795 38.5262 184.466 38.481C186.86 38.4156 189.253 38.2895 191.702 38.1872C192.193 39.311 192.964 39.6928 194.516 39.4288C194.375 38.3014 194.249 37.1693 194.074 36.0419C194.048 35.8707 193.827 35.7006 193.66 35.5817C192.347 34.6506 190.841 34.2177 189.293 33.9585C186.634 33.5137 183.967 33.0951 181.29 32.7776C176.697 32.2342 173.981 29.5977 172.614 25.3499C171.864 23.0215 171.523 20.6241 171.301 18.2017C171.282 17.8462 171.242 17.492 171.182 17.141C170.912 15.8495 171.182 14.6246 171.659 13.4414C172.343 11.7409 173.072 10.0582 173.796 8.37308C174.715 6.23254 176.455 5.10162 178.632 4.52011C181.475 3.76022 184.386 3.60919 187.308 3.56876C189.705 3.5307 192.066 3.76141 194.364 4.47611C198.447 5.74378 201.104 8.49081 202.652 12.389C203.718 15.073 204.228 17.883 204.562 20.7335C204.583 20.9095 204.6 21.0903 204.618 21.2639C204.636 21.4375 204.65 21.6052 204.675 21.8739C201.481 21.6361 198.333 21.5517 195.28 20.5516L195.193 21.1378L195.089 21.2758C193.863 17.9461 191.353 16.8639 188.01 17.1338C187.971 17.9663 187.909 18.8249 187.908 19.6858C187.908 19.8523 188.114 20.0604 188.276 20.1805C189.78 21.2805 191.286 22.3758 192.812 23.4508C194.483 24.6293 196.183 25.7555 197.834 26.9554C201.189 29.392 203.065 32.7598 203.972 36.7329C204.653 39.7058 204.894 42.7395 205.173 45.7707C205.324 47.4165 205.567 49.0541 205.77 50.6951L205.768 53.1794Z" fill="white"/>
<path d="M80.4033 0L87.6944 1.84205C87.7064 1.79211 87.7195 1.74335 87.7314 1.69459C87.7541 1.7267 87.7923 1.75643 87.7959 1.78973C87.9534 3.18822 88.1814 4.58432 88.2434 5.98757C88.3162 7.6227 88.2327 9.26378 88.2327 10.9025C88.2327 15.0147 88.2243 19.1269 88.2649 23.2391C88.2649 23.9598 88.5275 24.6745 88.611 25.3975C88.7507 26.5926 88.8939 27.7902 88.9452 28.9901C89.1338 33.3901 89.3737 37.8031 89.4071 42.2103C89.4202 43.9215 88.9178 45.6351 88.691 47.3523C88.5299 48.557 88.432 49.7699 88.3019 51.021C89.6351 51.1102 90.8178 51.1851 92.0018 51.2695C93.1309 51.3492 94.2599 51.5133 95.389 51.5074C98.3465 51.499 101.304 51.4336 104.26 51.3646C108.115 51.2743 111.97 51.1934 115.822 51.0388C118.081 50.9472 120.345 50.801 122.59 50.5346C125.89 50.1457 129.113 50.399 132.333 51.1898C134.521 51.7262 136.749 52.0841 139.085 52.5443C139.159 56.98 138.249 61.4347 136.86 65.8787C135.774 65.7859 134.671 65.6944 133.568 65.5945C129.594 65.2377 125.628 64.7989 121.625 64.787C116.856 64.7735 112.088 64.6887 107.319 64.5325C105.181 64.4612 103.045 64.1841 100.92 63.9142C97.2712 63.4685 93.5897 63.3526 89.9203 63.5681C87.0762 63.7203 84.2834 64.1627 81.5013 64.7371C80.2517 64.9928 78.983 65.076 77.7322 64.655C77.3252 64.5183 77.1354 64.3173 77.1641 63.8464C77.244 62.3266 77.3825 60.7961 77.2834 59.2835C77.1455 57.4152 76.9064 55.5558 76.5673 53.7133C76.2391 51.8261 76.1293 49.9483 76.368 48.0516C76.8 44.6089 76.8454 41.1543 76.8263 37.689C76.8048 32.4875 76.7869 27.2859 76.6831 22.0856C76.6306 18.9664 76.3191 15.8483 76.2725 12.7243C76.2319 9.89881 76.4145 7.07211 76.4611 4.24422C76.4742 3.43795 76.3417 2.6293 76.3071 1.82065C76.2892 1.33546 76.0768 1.07384 75.6089 0.971568C75.351 0.894218 75.0979 0.801695 74.851 0.694486L78.3755 0H80.4033Z" fill="white"/>
<path d="M126.108 47.1347C124.889 41.0139 124.536 34.8754 124.556 28.5298C124.344 28.8414 124.222 29.0055 124.114 29.1779C122.539 31.7395 120.954 34.2915 119.401 36.8708C119.115 37.3465 118.819 37.3869 118.471 37.0456C117.852 36.4356 117.241 35.8124 116.681 35.1429C115.821 34.1083 115.02 33.0238 114.175 31.9773C113.936 31.6812 113.62 31.4457 113.339 31.1829L113.195 31.2495C113.279 36.8704 113.364 42.4965 113.449 48.1277C112.494 48.1277 111.586 48.1657 110.683 48.1205C107.449 47.9612 104.219 47.7138 100.983 47.6199C99.503 47.5771 98.0159 47.8161 96.5312 47.9255C96.2925 47.9434 96.0538 47.9564 95.7554 47.9766C95.8568 47.0443 95.9511 46.1524 96.0538 45.2617C96.4775 41.5752 96.3139 37.8733 96.2316 34.1773C96.1397 30.0246 96.0633 25.8708 95.9046 21.7205C95.8198 19.4908 95.5978 17.2658 95.3961 15.0432C95.1574 12.3866 94.9187 9.72757 94.581 7.08281C94.4318 5.93405 94.686 4.89946 95.0524 3.84227C95.0524 3.9933 95.0643 4.14551 95.0524 4.29654C95.0357 4.46659 94.9975 4.63427 94.9557 4.88281C96.524 4.55459 98.0589 4.33697 99.5269 3.9053C102.947 2.89805 106.442 3.09427 109.931 3.10854C110.865 3.10854 111.801 3.16086 112.733 3.124C113.344 3.09903 113.788 3.30714 114.064 3.82086C114.986 5.54202 115.896 7.26951 116.795 9.00335C116.928 9.25903 117.008 9.54324 117.217 9.812C117.317 8.96768 117.416 8.12335 117.514 7.27903C117.675 5.92573 117.84 4.57243 117.992 3.21914C118.057 2.65189 118.31 2.43308 118.938 2.376C121.614 2.13103 124.246 2.45449 126.886 2.80649C129.581 3.16324 132.283 3.47005 134.983 3.79827L136.176 3.94692C136.176 4.87449 136.118 5.80324 136.186 6.72249C136.501 10.9596 136.752 15.205 137.214 19.4266C137.669 23.5888 138.4 27.7141 138.903 31.8691C139.1 33.4876 139.049 35.1405 139.037 36.778C139.015 39.4085 138.918 42.039 138.886 44.6695C138.886 45.0988 138.729 45.2546 138.328 45.4044C136.55 46.0739 134.681 45.9312 132.85 46.0121C130.658 46.1096 128.497 46.2654 126.429 47.055C126.323 47.088 126.216 47.1146 126.108 47.1347Z" fill="white"/>
<path d="M52.0442 55.7337C51.2804 58.2833 50.0726 60.569 48.8218 62.8332C48.669 63.1103 48.4637 63.3636 48.3444 63.6549C47.9791 64.5789 47.2702 64.6883 46.4109 64.5385C44.7901 64.2543 43.1717 63.9582 41.5461 63.7061C40.9374 63.6246 40.3235 63.5876 39.7093 63.5955C37.8832 63.5812 36.056 63.5955 34.1559 63.5955C34.3469 62.9866 34.5342 62.4063 34.7097 61.8319C35.5941 58.9255 36.3985 55.9918 37.3843 53.1199C38.1196 50.9793 39.0744 48.909 39.9552 46.8172C41.9448 42.0913 43.3543 37.1848 44.6099 32.2258C45.8881 27.1777 46.9969 22.0856 48.3479 17.0577C49.0831 14.3226 50.2074 11.6909 51.0787 8.98789C51.5297 7.53818 51.9006 6.06495 52.1899 4.57481C52.2841 4.11935 52.0705 3.60205 51.9965 3.08595C53.6388 3.45103 55.225 2.63524 56.8899 2.46995C58.7136 2.288 60.5707 2.39027 62.4111 2.44022C63.6989 2.4747 64.9831 2.65784 66.2721 2.71373C66.7113 2.73276 66.9118 2.88497 67.0359 3.27027C67.3677 4.30368 67.715 5.33114 68.0588 6.36216C68.7952 8.5693 69.6103 10.7538 70.2513 12.9871C71.175 16.2063 71.4292 19.5277 71.2287 22.8574C71.0903 25.1395 70.7251 27.4061 70.5341 29.6857C70.4148 31.1235 70.4148 32.5707 70.3837 34.0144C70.3073 37.4143 70.2644 40.8165 70.1629 44.2164C70.12 45.6363 70.2333 47.0324 70.669 48.3726C71.3911 50.6098 71.8392 52.9257 72.0033 55.2699C72.1167 56.8159 72.587 58.2429 73.1586 59.6545C73.3556 60.1397 73.4904 60.6486 73.6838 61.2421C72.3303 61.2421 71.0986 61.3075 69.8753 61.2278C67.5741 61.0768 65.268 61.4354 63.1224 62.2778C62.2953 62.5977 61.424 62.8035 60.5277 63.0746C60.3929 61.9021 60.3033 60.7664 60.1219 59.6462C59.9477 58.5759 59.6827 57.5235 59.4476 56.4663C59.3533 56.0429 59.1122 55.8717 58.636 55.9002C57.2491 55.9739 55.8587 56.0263 54.4695 56.0084C53.6638 55.9906 52.8606 55.8289 52.0442 55.7337ZM57.1763 38.1575H57.0486L53.7152 47.5141H59.0549L57.1763 38.1575Z" fill="white"/>
<path d="M18.4505 46.2928C18.1438 47.2227 17.9922 48.0837 17.5959 48.8115C16.5982 50.6464 16.2831 52.6359 15.9787 54.6504C15.6004 57.1822 15.1695 59.7068 14.7422 62.3504C13.1513 62.1268 11.5866 62.0602 10.1114 61.6666C7.58476 60.9899 5.09868 61.0446 2.57202 61.5346C1.75924 61.6928 0.930939 61.7724 0 61.9032C0.486952 60.6189 0.945261 59.4321 1.38686 58.2393C3.16042 53.4457 4.3408 48.5106 5.05094 43.4506C5.68947 38.9008 6.27667 34.3295 7.67069 29.9271C8.33667 27.827 9.1972 25.7816 9.94433 23.7017C11.0292 20.6788 11.4577 17.5358 11.5794 14.3464C11.6499 12.4722 11.6642 10.5945 11.7191 8.72032C11.7334 8.20659 11.8098 7.69643 11.8384 7.18389C11.9112 5.84605 12.8088 5.13611 13.8972 4.67351C14.6804 4.34411 15.5053 4.12363 16.3487 4.01827C18.2583 3.78043 20.1751 3.55686 22.0967 3.47719C26.897 3.27622 30.9692 5.02314 34.4686 8.23395C37.4321 10.9501 39.701 14.2263 41.9758 17.4894C42.5463 18.3088 42.9103 19.3255 43.1585 20.3054C43.7971 22.8194 43.4044 25.3 42.5451 27.6974C41.2587 31.2249 39.6193 34.6146 37.6517 37.815C35.6645 41.0829 32.5435 43.0023 29.0584 44.3556C25.852 45.5992 22.4461 46.2539 19.0055 46.288C18.7835 46.2951 18.5686 46.2928 18.4505 46.2928ZM23.3833 20.7525C22.6361 21.4661 21.2767 26.1598 21.4677 27.5309C22.802 27.6879 24.3405 26.9363 24.9933 25.6996C26.1283 23.5459 25.2332 21.9715 23.3833 20.7525Z" fill="white"/>
<path d="M172.595 59.8602L158.717 61.4811C157.953 59.2823 157.183 56.9871 156.354 54.7122C156.028 53.818 155.968 53.8429 155.056 54.0403C153.836 54.3055 152.618 54.5778 151.392 54.8133C151.041 54.8811 150.904 54.9869 150.873 55.3698C150.754 56.8266 150.595 58.2798 150.423 59.7318C150.404 59.8256 150.364 59.9138 150.305 59.9895C150.246 60.0652 150.17 60.1264 150.084 60.1682C147.527 60.9515 144.967 61.7181 142.401 62.4681C141.981 62.5815 141.548 62.6465 141.112 62.662C140.516 62.6941 140.302 62.4705 140.438 61.8557C140.679 60.6995 140.981 59.5567 141.342 58.432C141.948 56.6185 142.707 54.8549 143.27 53.0307C143.538 52.1614 143.547 51.2017 143.591 50.2789C143.744 47.1192 143.77 43.9501 144.025 40.7987C144.184 38.8223 144.599 36.8565 145.018 34.911C146.243 29.2303 148.279 23.7862 149.959 18.2374C150.801 15.4511 151.335 12.5697 151.971 9.72281C152.448 7.58227 152.867 5.44173 153.302 3.29049C153.37 2.95395 153.523 2.79222 153.877 2.74941C157.855 2.27373 161.834 1.79092 165.812 1.30097C166.736 1.18206 167.66 1.06314 168.598 0.944218C168.598 1.7386 168.637 2.50206 168.591 3.26076C168.471 5.19438 168.315 7.12443 168.175 9.05568C168.071 10.6754 168.203 12.3017 168.567 13.8838C168.958 15.6592 168.956 17.4514 168.943 19.2494C168.913 23.1856 168.862 27.1218 168.922 31.0569C168.947 32.6694 169.264 34.276 169.4 35.8885C169.576 37.9744 169.712 40.0638 169.856 42.152C170.007 44.3591 170.007 46.5877 170.326 48.771C170.727 51.5181 171.379 54.2306 171.936 56.955C172.142 57.9563 172.387 58.9481 172.595 59.8602ZM153.315 39.5465L153.195 39.5536C152.461 42.4136 151.727 45.2724 150.97 48.2216L154.789 47.9838C154.652 47.74 154.403 47.6639 154.341 47.5081C154.117 46.967 153.858 46.4105 153.79 45.8433C153.638 44.5696 153.598 43.2829 153.505 42.0022C153.451 41.184 153.38 40.3658 153.315 39.5465Z" fill="white"/>
</svg>
