<svg width="440" height="816" viewBox="0 0 440 816" fill="none" xmlns="http://www.w3.org/2000/svg">
<path d="M27.9839 81.3934H142.85V111.118H103.554V261.25H67.2803V111.118H27.9839V81.3934ZM158.586 261.25V81.3934H194.86V150.162H237.179V81.3934H273.453V261.25H237.179V181.398H194.86V261.25H158.586ZM298.558 81.3934H399.066V111.118H334.832V153.437H395.288V183.161H334.832V231.526H401.585V261.25H298.558V81.3934Z" fill="#FFC008"/>
<path d="M84.0444 628.922C84.0444 574.259 90.8457 535.467 145.256 535.467C199.667 535.467 206.468 574.259 206.468 628.922C206.468 683.584 199.667 722.376 145.256 722.376C90.8457 722.376 84.0444 683.584 84.0444 628.922ZM120.318 628.922C120.318 677.286 123.845 695.675 145.256 695.675C166.668 695.675 170.194 677.286 170.194 628.922C170.194 580.809 166.668 562.168 145.256 562.168C123.845 562.168 120.318 580.809 120.318 628.922ZM342.409 592.396H307.647C307.647 579.045 301.601 562.168 286.991 562.168C269.358 562.168 262.305 580.305 262.305 625.143C262.305 668.47 266.335 695.675 287.243 695.675C295.808 695.675 309.662 686.355 309.662 666.958V648.57H285.732V621.868H344.424V718.85H317.723V702.224H317.219C308.655 716.331 296.312 722.376 279.434 722.376C234.848 722.376 226.031 689.126 226.031 626.906C226.031 566.45 240.138 535.467 286.487 535.467C326.288 535.467 342.409 555.871 342.409 592.396Z" fill="#FFC008"/>
<path d="M1.71518 36.1499V31.5299L13.2872 9.9259H2.50718V4.7339H20.5912V9.5299L8.84318 30.9579H20.7672V36.1499H1.71518ZM24.0428 4.7339H41.5988V9.9259H30.3788V17.3179H40.9388V22.5099H30.3788V30.9579H42.0388V36.1499H24.0428V4.7339ZM51.5624 9.3979V18.4619H54.2024C57.2384 18.4619 58.9544 17.1419 58.9544 13.7539C58.9544 10.8499 57.4144 9.3979 54.5544 9.3979H51.5624ZM45.2264 36.1499V4.7339H56.9304C62.1224 4.7339 65.2904 7.4619 65.2904 12.8299C65.2904 17.0099 63.6184 19.8259 60.0544 20.5739V20.6619C64.3664 21.2339 65.0264 23.6099 65.1144 30.2539C65.1584 33.5539 65.3344 35.2699 66.5224 35.8859V36.1499H59.6584C59.0424 35.2699 58.9104 34.0819 58.8664 32.8499L58.6904 26.8219C58.6024 24.3579 57.5024 22.8619 54.9504 22.8619H51.5624V36.1499H45.2264ZM69.0156 20.4419C69.0156 10.8939 70.2036 4.1179 79.7076 4.1179C89.2116 4.1179 90.3996 10.8939 90.3996 20.4419C90.3996 29.9899 89.2116 36.7659 79.7076 36.7659C70.2036 36.7659 69.0156 29.9899 69.0156 20.4419ZM75.3516 20.4419C75.3516 28.8899 75.9676 32.1019 79.7076 32.1019C83.4476 32.1019 84.0636 28.8899 84.0636 20.4419C84.0636 12.0379 83.4476 8.7819 79.7076 8.7819C75.9676 8.7819 75.3516 12.0379 75.3516 20.4419ZM104.695 36.1499V4.7339H115.783C122.207 4.7339 124.407 9.4419 124.407 14.1499C124.407 20.6619 120.403 23.6099 114.419 23.6099H111.031V36.1499H104.695ZM111.031 9.3979V18.9459H113.847C116.355 18.9459 118.071 17.4499 118.071 14.2379C118.071 11.1579 116.839 9.3979 113.671 9.3979H111.031ZM133.848 9.3979V18.4619H136.488C139.524 18.4619 141.24 17.1419 141.24 13.7539C141.24 10.8499 139.7 9.3979 136.84 9.3979H133.848ZM127.512 36.1499V4.7339H139.216C144.408 4.7339 147.576 7.4619 147.576 12.8299C147.576 17.0099 145.904 19.8259 142.34 20.5739V20.6619C146.652 21.2339 147.312 23.6099 147.4 30.2539C147.444 33.5539 147.62 35.2699 148.808 35.8859V36.1499H141.944C141.328 35.2699 141.196 34.0819 141.152 32.8499L140.976 26.8219C140.888 24.3579 139.788 22.8619 137.236 22.8619H133.848V36.1499H127.512ZM151.301 20.4419C151.301 10.8939 152.489 4.1179 161.993 4.1179C171.497 4.1179 172.685 10.8939 172.685 20.4419C172.685 29.9899 171.497 36.7659 161.993 36.7659C152.489 36.7659 151.301 29.9899 151.301 20.4419ZM157.637 20.4419C157.637 28.8899 158.253 32.1019 161.993 32.1019C165.733 32.1019 166.349 28.8899 166.349 20.4419C166.349 12.0379 165.733 8.7819 161.993 8.7819C158.253 8.7819 157.637 12.0379 157.637 20.4419ZM175.75 20.4419C175.75 10.8939 176.938 4.1179 186.442 4.1179C195.946 4.1179 197.134 10.8939 197.134 20.4419C197.134 29.9899 195.946 36.7659 186.442 36.7659C176.938 36.7659 175.75 29.9899 175.75 20.4419ZM182.086 20.4419C182.086 28.8899 182.702 32.1019 186.442 32.1019C190.182 32.1019 190.798 28.8899 190.798 20.4419C190.798 12.0379 190.182 8.7819 186.442 8.7819C182.702 8.7819 182.086 12.0379 182.086 20.4419ZM200.859 36.1499V4.7339H218.415V9.9259H207.195V17.3179H217.755V22.5099H207.195V36.1499H200.859ZM231.929 36.1499V4.7339H241.345L245.833 26.9099H245.921L250.453 4.7339H259.825V36.1499H254.017V11.0699H253.929L248.341 36.1499H243.413L237.825 11.0699H237.737V36.1499H231.929ZM262.167 36.1499L270.483 4.7339H278.315L286.631 36.1499H280.031L278.579 29.5059H270.219L268.767 36.1499H262.167ZM274.355 10.1899L271.319 24.3139H277.479L274.443 10.1899H274.355ZM306.372 36.1499H288.816V4.7339H295.152V30.9579H306.372V36.1499ZM304.246 4.7339H324.31V9.9259H317.446V36.1499H311.11V9.9259H304.246V4.7339ZM337.629 36.1499V4.7339H348.233C353.425 4.7339 357.165 6.6699 357.165 12.6979C357.165 16.0859 355.537 18.6819 352.413 19.5619V19.6499C355.889 20.1339 358.133 22.7739 358.133 26.9539C358.133 31.8819 355.713 36.1499 348.321 36.1499H337.629ZM343.965 9.3979V17.6259H345.769C349.245 17.6259 350.829 16.4379 350.829 13.4899C350.829 10.4979 349.377 9.3979 346.253 9.3979H343.965ZM343.965 22.0259V31.4859H346.429C349.465 31.4859 351.533 30.3859 351.533 26.7339C351.533 23.0819 349.465 22.0259 346.693 22.0259H343.965ZM368.414 9.3979V18.4619H371.054C374.09 18.4619 375.806 17.1419 375.806 13.7539C375.806 10.8499 374.266 9.3979 371.406 9.3979H368.414ZM362.078 36.1499V4.7339H373.782C378.974 4.7339 382.142 7.4619 382.142 12.8299C382.142 17.0099 380.47 19.8259 376.906 20.5739V20.6619C381.218 21.2339 381.878 23.6099 381.966 30.2539C382.01 33.5539 382.186 35.2699 383.374 35.8859V36.1499H376.51C375.894 35.2699 375.762 34.0819 375.718 32.8499L375.542 26.8219C375.454 24.3579 374.354 22.8619 371.802 22.8619H368.414V36.1499H362.078ZM386.527 4.7339H404.083V9.9259H392.863V17.3179H403.423V22.5099H392.863V30.9579H404.523V36.1499H386.527V4.7339ZM411.583 36.1499L405.863 4.7339H411.935L415.411 27.9659H415.499L419.195 4.7339H425.267L428.963 27.9659H429.051L432.527 4.7339H438.599L432.879 36.1499H425.795L422.275 13.3579H422.187L418.667 36.1499H411.583Z" fill="#FFC008"/>
<path d="M89.8768 61.6499V50.6543H92.7412V59.1859H97.8694V61.6499H89.8768ZM98.8755 56.1521C98.8755 52.9643 100.831 50.4233 104.296 50.4233C107.761 50.4233 109.717 52.9643 109.717 56.1521C109.717 59.3399 107.761 61.8809 104.296 61.8809C100.831 61.8809 98.8755 59.3399 98.8755 56.1521ZM101.74 56.1521C101.74 57.7845 102.448 59.4169 104.296 59.4169C106.144 59.4169 106.853 57.7845 106.853 56.1521C106.853 54.5197 106.144 52.8873 104.296 52.8873C102.448 52.8873 101.74 54.5197 101.74 56.1521ZM111.277 61.6499V50.6543H116.883C118.823 50.6543 120.733 51.5321 120.733 53.7497C120.733 54.9355 120.163 56.0597 119.008 56.5063V56.5371C120.179 56.8143 120.517 58.1233 120.61 59.1705C120.641 59.6325 120.687 61.2495 121.072 61.6499H118.238C117.992 61.2803 117.946 60.2023 117.915 59.8943C117.838 58.7855 117.653 57.6459 116.313 57.6459H114.142V61.6499H111.277ZM114.142 52.9489V55.4283H116.544C117.407 55.4283 117.869 54.9663 117.869 54.1347C117.869 53.3185 117.222 52.9489 116.421 52.9489H114.142ZM122.391 61.6499V50.6543H131.154V52.9489H125.256V54.8739H130.646V57.0915H125.256V59.1859H131.308V61.6499H122.391ZM132.949 61.6499V50.6543H137.169L139.063 57.9847H139.094L140.988 50.6543H145.207V61.6499H142.512V53.3031H142.482L140.172 61.6499H137.985L135.675 53.3031H135.644V61.6499H132.949ZM152.048 61.6499V50.6543H154.913V61.6499H152.048ZM156.906 61.6499V50.6543H162.127C164.175 50.6543 166.1 51.5937 166.1 54.1963C166.1 56.9221 164.544 57.9847 162.127 57.9847H159.77V61.6499H156.906ZM159.77 52.9489V55.7671H161.695C162.589 55.7671 163.235 55.3975 163.235 54.3965C163.235 53.3647 162.573 52.9489 161.695 52.9489H159.77ZM166.817 57.9539H169.681C169.743 59.2475 170.544 59.6633 171.76 59.6633C172.623 59.6633 173.516 59.3553 173.516 58.5391C173.516 57.5689 171.945 57.3841 170.359 56.9375C168.788 56.4909 167.14 55.7825 167.14 53.7651C167.14 51.3627 169.558 50.4233 171.622 50.4233C173.808 50.4233 176.011 51.4859 176.026 53.9653H173.162C173.208 52.9643 172.268 52.6409 171.391 52.6409C170.775 52.6409 170.005 52.8565 170.005 53.5803C170.005 54.4273 171.591 54.5813 173.192 55.0279C174.779 55.4745 176.38 56.2137 176.38 58.2003C176.38 60.9877 174.009 61.8809 171.591 61.8809C169.065 61.8809 166.832 60.7721 166.817 57.9539ZM187.222 50.6543V57.1069C187.222 60.2947 185.759 61.8809 182.432 61.8809C179.106 61.8809 177.643 60.2947 177.643 57.1069V50.6543H180.507V57.2763C180.507 58.6931 181.031 59.4169 182.432 59.4169C183.834 59.4169 184.357 58.6931 184.357 57.2763V50.6543H187.222ZM189.15 61.6499V50.6543H193.37L195.264 57.9847H195.295L197.189 50.6543H201.408V61.6499H198.713V53.3031H198.683L196.373 61.6499H194.186L191.876 53.3031H191.845V61.6499H189.15ZM208.249 61.6499V50.6543H212.977C216.35 50.6543 218.367 52.7025 218.367 56.1059C218.367 59.7095 216.319 61.6499 212.977 61.6499H208.249ZM211.114 53.1183V59.1859H212.469C214.64 59.1397 215.503 58.2927 215.503 56.0905C215.503 54.0885 214.425 53.1183 212.469 53.1183H211.114ZM219.519 56.1521C219.519 52.9643 221.475 50.4233 224.94 50.4233C228.405 50.4233 230.36 52.9643 230.36 56.1521C230.36 59.3399 228.405 61.8809 224.94 61.8809C221.475 61.8809 219.519 59.3399 219.519 56.1521ZM222.383 56.1521C222.383 57.7845 223.092 59.4169 224.94 59.4169C226.788 59.4169 227.496 57.7845 227.496 56.1521C227.496 54.5197 226.788 52.8873 224.94 52.8873C223.092 52.8873 222.383 54.5197 222.383 56.1521ZM231.921 61.6499V50.6543H234.785V59.1859H239.913V61.6499H231.921ZM240.919 56.1521C240.919 52.9643 242.875 50.4233 246.34 50.4233C249.805 50.4233 251.761 52.9643 251.761 56.1521C251.761 59.3399 249.805 61.8809 246.34 61.8809C242.875 61.8809 240.919 59.3399 240.919 56.1521ZM243.784 56.1521C243.784 57.7845 244.492 59.4169 246.34 59.4169C248.188 59.4169 248.897 57.7845 248.897 56.1521C248.897 54.5197 248.188 52.8873 246.34 52.8873C244.492 52.8873 243.784 54.5197 243.784 56.1521ZM253.321 61.6499V50.6543H258.927C260.867 50.6543 262.777 51.5321 262.777 53.7497C262.777 54.9355 262.207 56.0597 261.052 56.5063V56.5371C262.223 56.8143 262.561 58.1233 262.654 59.1705C262.685 59.6325 262.731 61.2495 263.116 61.6499H260.282C260.036 61.2803 259.99 60.2023 259.959 59.8943C259.882 58.7855 259.697 57.6459 258.357 57.6459H256.186V61.6499H253.321ZM256.186 52.9489V55.4283H258.588C259.451 55.4283 259.913 54.9663 259.913 54.1347C259.913 53.3185 259.266 52.9489 258.465 52.9489H256.186ZM268.661 57.9539H271.526C271.587 59.2475 272.388 59.6633 273.605 59.6633C274.467 59.6633 275.36 59.3553 275.36 58.5391C275.36 57.5689 273.79 57.3841 272.203 56.9375C270.633 56.4909 268.985 55.7825 268.985 53.7651C268.985 51.3627 271.403 50.4233 273.466 50.4233C275.653 50.4233 277.855 51.4859 277.871 53.9653H275.006C275.052 52.9643 274.113 52.6409 273.235 52.6409C272.619 52.6409 271.849 52.8565 271.849 53.5803C271.849 54.4273 273.435 54.5813 275.037 55.0279C276.623 55.4745 278.225 56.2137 278.225 58.2003C278.225 60.9877 275.853 61.8809 273.435 61.8809C270.91 61.8809 268.677 60.7721 268.661 57.9539ZM279.565 61.6499V50.6543H282.429V61.6499H279.565ZM293.139 50.6543V53.1183H289.858V61.6499H286.994V53.1183H283.714V50.6543H293.139ZM303.685 53.7035L302.438 57.5535H304.933L303.716 53.7035H303.685ZM298.141 61.6499L302.253 50.6543H305.164L309.276 61.6499H306.288L305.61 59.6787H301.776L301.083 61.6499H298.141ZM310.124 61.6499V50.6543H314.344L316.238 57.9847H316.269L318.163 50.6543H322.383V61.6499H319.688V53.3031H319.657L317.347 61.6499H315.16L312.85 53.3031H312.819V61.6499H310.124ZM324.366 61.6499V50.6543H333.128V52.9489H327.23V54.8739H332.62V57.0915H327.23V59.1859H333.282V61.6499H324.366ZM343.625 50.6543V53.1183H340.344V61.6499H337.48V53.1183H334.2V50.6543H343.625Z" fill="#FFC008"/>
</svg>
