<svg width="826" height="816" viewBox="0 0 826 816" fill="none" xmlns="http://www.w3.org/2000/svg">
<path d="M8.91202 171.322C8.91202 116.659 15.7133 77.8668 70.1237 77.8668C124.534 77.8668 131.335 116.659 131.335 171.322C131.335 225.984 124.534 264.777 70.1237 264.777C15.7133 264.777 8.91202 225.984 8.91202 171.322ZM45.1856 171.322C45.1856 219.686 48.7122 238.075 70.1237 238.075C91.5352 238.075 95.0618 219.686 95.0618 171.322C95.0618 123.209 91.5352 104.568 70.1237 104.568C48.7122 104.568 45.1856 123.209 45.1856 171.322ZM188.936 108.095V159.986H204.05C221.431 159.986 231.255 152.429 231.255 133.033C231.255 116.407 222.439 108.095 206.065 108.095H188.936ZM152.662 261.25V81.3934H219.668C249.392 81.3934 267.529 97.0112 267.529 127.743C267.529 151.673 257.957 167.795 237.553 172.077V172.581C262.239 175.856 266.017 189.458 266.521 227.495C266.773 246.388 267.781 256.212 274.582 259.739V261.25H235.286C231.759 256.212 231.003 249.411 230.751 242.357L229.744 207.847C229.24 193.741 222.942 185.176 208.332 185.176H188.936V261.25H152.662ZM280.039 261.25L327.648 81.3934H372.486L420.096 261.25H382.311L373.998 223.213H326.137L317.824 261.25H280.039ZM349.815 112.629L332.434 193.489H367.7L350.319 112.629H349.815ZM432.606 81.3934H474.421L518.252 204.572H518.756V81.3934H552.006V261.25H510.695L466.36 135.3H465.857V261.25H432.606V81.3934ZM691.866 134.796H657.104C657.104 121.445 651.058 104.568 636.448 104.568C618.815 104.568 611.762 122.705 611.762 167.543C611.762 210.87 615.792 238.075 636.7 238.075C645.265 238.075 659.119 228.755 659.119 209.359V190.97H635.189V164.268H693.881V261.25H667.18V244.625H666.676C658.111 258.731 645.768 264.777 628.891 264.777C584.305 264.777 575.488 231.526 575.488 169.306C575.488 108.85 589.595 77.8668 635.944 77.8668C675.744 77.8668 691.866 98.2707 691.866 134.796ZM717.223 81.3934H817.731V111.118H753.497V153.437H813.953V183.161H753.497V231.526H820.25V261.25H717.223V81.3934Z" fill="#E86F26"/>
<path d="M71.5832 718.85V538.993H132.291C162.015 538.993 183.427 550.077 183.427 584.587C183.427 603.983 174.107 618.846 156.222 623.884V624.387C176.122 627.158 188.969 642.272 188.969 666.203C188.969 694.416 175.114 718.85 132.795 718.85H71.5832ZM107.857 565.695V612.8H118.185C138.085 612.8 147.153 605.999 147.153 589.121C147.153 571.992 138.841 565.695 120.956 565.695H107.857ZM107.857 637.99V692.148H121.963C139.344 692.148 151.184 685.851 151.184 664.943C151.184 644.036 139.344 637.99 123.475 637.99H107.857ZM249.592 718.85H213.318V538.993H249.592V718.85ZM266.926 538.993H381.792V568.717H342.496V718.85H306.222V568.717H266.926V538.993ZM387.956 538.993H502.822V568.717H463.526V718.85H427.252V568.717H387.956V538.993ZM518.558 538.993H619.066V568.717H554.832V611.037H615.288V640.761H554.832V689.126H621.585V718.85H518.558V538.993ZM676.108 565.695V617.586H691.222C708.603 617.586 718.427 610.029 718.427 590.633C718.427 574.007 709.611 565.695 693.237 565.695H676.108ZM639.834 718.85V538.993H706.84C736.564 538.993 754.701 554.611 754.701 585.343C754.701 609.273 745.128 625.395 724.725 629.677V630.181C749.411 633.456 753.189 647.058 753.693 685.095C753.945 703.988 754.953 713.812 761.754 717.338V718.85H722.457C718.931 713.812 718.175 707.011 717.923 699.957L716.916 665.447C716.412 651.341 710.114 642.776 695.504 642.776H676.108V718.85H639.834Z" fill="#E86F26"/>
<path d="M199.115 36.1499V31.5299L210.687 9.9259H199.907V4.7339H217.991V9.5299L206.243 30.9579H218.167V36.1499H199.115ZM221.443 4.7339H238.999V9.9259H227.779V17.3179H238.339V22.5099H227.779V30.9579H239.439V36.1499H221.443V4.7339ZM248.962 9.3979V18.4619H251.602C254.638 18.4619 256.354 17.1419 256.354 13.7539C256.354 10.8499 254.814 9.3979 251.954 9.3979H248.962ZM242.626 36.1499V4.7339H254.33C259.522 4.7339 262.69 7.4619 262.69 12.8299C262.69 17.0099 261.018 19.8259 257.454 20.5739V20.6619C261.766 21.2339 262.426 23.6099 262.514 30.2539C262.558 33.5539 262.734 35.2699 263.922 35.8859V36.1499H257.058C256.442 35.2699 256.31 34.0819 256.266 32.8499L256.09 26.8219C256.002 24.3579 254.902 22.8619 252.35 22.8619H248.962V36.1499H242.626ZM266.415 20.4419C266.415 10.8939 267.603 4.1179 277.107 4.1179C286.611 4.1179 287.799 10.8939 287.799 20.4419C287.799 29.9899 286.611 36.7659 277.107 36.7659C267.603 36.7659 266.415 29.9899 266.415 20.4419ZM272.751 20.4419C272.751 28.8899 273.367 32.1019 277.107 32.1019C280.847 32.1019 281.463 28.8899 281.463 20.4419C281.463 12.0379 280.847 8.7819 277.107 8.7819C273.367 8.7819 272.751 12.0379 272.751 20.4419ZM302.095 36.1499V4.7339H313.183C319.607 4.7339 321.807 9.4419 321.807 14.1499C321.807 20.6619 317.803 23.6099 311.819 23.6099H308.431V36.1499H302.095ZM308.431 9.3979V18.9459H311.247C313.755 18.9459 315.471 17.4499 315.471 14.2379C315.471 11.1579 314.239 9.3979 311.071 9.3979H308.431ZM331.247 9.3979V18.4619H333.887C336.923 18.4619 338.639 17.1419 338.639 13.7539C338.639 10.8499 337.099 9.3979 334.239 9.3979H331.247ZM324.911 36.1499V4.7339H336.615C341.807 4.7339 344.975 7.4619 344.975 12.8299C344.975 17.0099 343.303 19.8259 339.739 20.5739V20.6619C344.051 21.2339 344.711 23.6099 344.799 30.2539C344.843 33.5539 345.019 35.2699 346.207 35.8859V36.1499H339.343C338.727 35.2699 338.595 34.0819 338.551 32.8499L338.375 26.8219C338.287 24.3579 337.187 22.8619 334.635 22.8619H331.247V36.1499H324.911ZM348.701 20.4419C348.701 10.8939 349.889 4.1179 359.393 4.1179C368.897 4.1179 370.085 10.8939 370.085 20.4419C370.085 29.9899 368.897 36.7659 359.393 36.7659C349.889 36.7659 348.701 29.9899 348.701 20.4419ZM355.037 20.4419C355.037 28.8899 355.653 32.1019 359.393 32.1019C363.133 32.1019 363.749 28.8899 363.749 20.4419C363.749 12.0379 363.133 8.7819 359.393 8.7819C355.653 8.7819 355.037 12.0379 355.037 20.4419ZM373.15 20.4419C373.15 10.8939 374.338 4.1179 383.842 4.1179C393.346 4.1179 394.534 10.8939 394.534 20.4419C394.534 29.9899 393.346 36.7659 383.842 36.7659C374.338 36.7659 373.15 29.9899 373.15 20.4419ZM379.486 20.4419C379.486 28.8899 380.102 32.1019 383.842 32.1019C387.582 32.1019 388.198 28.8899 388.198 20.4419C388.198 12.0379 387.582 8.7819 383.842 8.7819C380.102 8.7819 379.486 12.0379 379.486 20.4419ZM398.259 36.1499V4.7339H415.815V9.9259H404.595V17.3179H415.155V22.5099H404.595V36.1499H398.259ZM429.329 36.1499V4.7339H438.745L443.233 26.9099H443.321L447.853 4.7339H457.225V36.1499H451.417V11.0699H451.329L445.741 36.1499H440.813L435.225 11.0699H435.137V36.1499H429.329ZM459.567 36.1499L467.883 4.7339H475.715L484.031 36.1499H477.431L475.979 29.5059H467.619L466.167 36.1499H459.567ZM471.755 10.1899L468.719 24.3139H474.879L471.843 10.1899H471.755ZM503.772 36.1499H486.216V4.7339H492.552V30.9579H503.772V36.1499ZM501.646 4.7339H521.71V9.9259H514.846V36.1499H508.51V9.9259H501.646V4.7339ZM535.029 36.1499V4.7339H545.633C550.825 4.7339 554.565 6.6699 554.565 12.6979C554.565 16.0859 552.937 18.6819 549.813 19.5619V19.6499C553.289 20.1339 555.533 22.7739 555.533 26.9539C555.533 31.8819 553.113 36.1499 545.721 36.1499H535.029ZM541.365 9.3979V17.6259H543.169C546.645 17.6259 548.229 16.4379 548.229 13.4899C548.229 10.4979 546.777 9.3979 543.653 9.3979H541.365ZM541.365 22.0259V31.4859H543.829C546.865 31.4859 548.933 30.3859 548.933 26.7339C548.933 23.0819 546.865 22.0259 544.093 22.0259H541.365ZM565.814 9.3979V18.4619H568.454C571.49 18.4619 573.206 17.1419 573.206 13.7539C573.206 10.8499 571.666 9.3979 568.806 9.3979H565.814ZM559.478 36.1499V4.7339H571.182C576.374 4.7339 579.542 7.4619 579.542 12.8299C579.542 17.0099 577.87 19.8259 574.306 20.5739V20.6619C578.618 21.2339 579.278 23.6099 579.366 30.2539C579.41 33.5539 579.586 35.2699 580.774 35.8859V36.1499H573.91C573.294 35.2699 573.162 34.0819 573.118 32.8499L572.942 26.8219C572.854 24.3579 571.754 22.8619 569.202 22.8619H565.814V36.1499H559.478ZM583.927 4.7339H601.483V9.9259H590.263V17.3179H600.823V22.5099H590.263V30.9579H601.923V36.1499H583.927V4.7339ZM608.983 36.1499L603.263 4.7339H609.335L612.811 27.9659H612.899L616.595 4.7339H622.667L626.363 27.9659H626.451L629.927 4.7339H635.999L630.279 36.1499H623.195L619.675 13.3579H619.587L616.067 36.1499H608.983Z" fill="#E86F26"/>
<path d="M291.347 61.6499V50.6543H293.764V59.6171H299.124V61.6499H291.347ZM299.998 56.1983C299.998 52.9335 302 50.3925 305.403 50.3925C308.807 50.3925 310.809 52.9335 310.809 56.1983C310.809 59.3707 308.807 61.9117 305.403 61.9117C302 61.9117 299.998 59.3707 299.998 56.1983ZM302.416 56.1983C302.416 58.0309 303.232 59.8789 305.403 59.8789C307.575 59.8789 308.391 58.0309 308.391 56.1983C308.391 54.2733 307.575 52.4253 305.403 52.4253C303.232 52.4253 302.416 54.2733 302.416 56.1983ZM312.461 61.6499V50.6543H318.39C320.362 50.6543 321.609 52.0249 321.609 53.6881C321.609 54.9817 321.085 55.9519 319.869 56.4447V56.4755C321.055 56.7835 321.393 57.9385 321.47 59.0473C321.517 59.7403 321.501 61.0339 321.932 61.6499H319.515C319.222 60.9569 319.253 59.8943 319.13 59.0165C318.96 57.8615 318.514 57.3533 317.297 57.3533H314.879V61.6499H312.461ZM314.879 52.5331V55.6285H317.528C318.606 55.6285 319.191 55.1665 319.191 54.0577C319.191 52.9951 318.606 52.5331 317.528 52.5331H314.879ZM323.575 61.6499V50.6543H331.799V52.6871H325.993V55.0433H331.321V56.9221H325.993V59.6171H331.922V61.6499H323.575ZM333.561 61.6499V50.6543H336.965L339.536 58.2157H339.567L342 50.6543H345.404V61.6499H343.14V53.8575H343.109L340.414 61.6499H338.551L335.856 53.9345H335.825V61.6499H333.561ZM351.819 61.6499V50.6543H354.236V61.6499H351.819ZM356.36 61.6499V50.6543H361.319C364.06 50.6543 365.123 52.3945 365.123 54.1809C365.123 55.9673 364.06 57.7075 361.319 57.7075H358.778V61.6499H356.36ZM358.778 52.5331V55.8287H360.657C361.781 55.8287 362.782 55.5823 362.782 54.1809C362.782 52.7795 361.781 52.5331 360.657 52.5331H358.778ZM365.939 58.0001H368.28C368.28 59.4631 369.42 60.0329 370.713 60.0329C371.56 60.0329 372.854 59.7865 372.854 58.6623C372.854 57.4765 371.206 57.2763 369.589 56.8451C367.957 56.4139 366.309 55.7825 366.309 53.7189C366.309 51.4705 368.434 50.3925 370.421 50.3925C372.715 50.3925 374.825 51.3935 374.825 53.9345H372.484C372.407 52.6101 371.468 52.2713 370.313 52.2713C369.543 52.2713 368.65 52.5947 368.65 53.5187C368.65 54.3657 369.173 54.4735 371.93 55.1819C372.731 55.3821 375.195 55.8903 375.195 58.3851C375.195 60.4025 373.608 61.9117 370.621 61.9117C368.188 61.9117 365.908 60.7105 365.939 58.0001ZM385.966 50.6543V57.4919C385.966 60.4641 384.21 61.9117 381.269 61.9117C378.312 61.9117 376.587 60.4795 376.587 57.4919V50.6543H379.005V57.4919C379.005 58.6931 379.313 59.8789 381.269 59.8789C382.993 59.8789 383.548 59.1243 383.548 57.4919V50.6543H385.966ZM388.048 61.6499V50.6543H391.451L394.023 58.2157H394.054L396.487 50.6543H399.89V61.6499H397.627V53.8575H397.596L394.901 61.6499H393.037L390.342 53.9345H390.312V61.6499H388.048ZM406.305 61.6499V50.6543H411.048C413.897 50.6543 416.038 52.4407 416.038 56.0905C416.038 59.2783 414.406 61.6499 411.048 61.6499H406.305ZM408.723 52.6871V59.6171H410.879C412.28 59.6171 413.62 58.7547 413.62 56.3215C413.62 54.1039 412.85 52.6871 410.448 52.6871H408.723ZM417.242 56.1983C417.242 52.9335 419.244 50.3925 422.648 50.3925C426.051 50.3925 428.053 52.9335 428.053 56.1983C428.053 59.3707 426.051 61.9117 422.648 61.9117C419.244 61.9117 417.242 59.3707 417.242 56.1983ZM419.66 56.1983C419.66 58.0309 420.476 59.8789 422.648 59.8789C424.819 59.8789 425.635 58.0309 425.635 56.1983C425.635 54.2733 424.819 52.4253 422.648 52.4253C420.476 52.4253 419.66 54.2733 419.66 56.1983ZM429.706 61.6499V50.6543H432.124V59.6171H437.483V61.6499H429.706ZM438.357 56.1983C438.357 52.9335 440.359 50.3925 443.763 50.3925C447.166 50.3925 449.168 52.9335 449.168 56.1983C449.168 59.3707 447.166 61.9117 443.763 61.9117C440.359 61.9117 438.357 59.3707 438.357 56.1983ZM440.775 56.1983C440.775 58.0309 441.591 59.8789 443.763 59.8789C445.934 59.8789 446.75 58.0309 446.75 56.1983C446.75 54.2733 445.934 52.4253 443.763 52.4253C441.591 52.4253 440.775 54.2733 440.775 56.1983ZM450.821 61.6499V50.6543H456.75C458.721 50.6543 459.968 52.0249 459.968 53.6881C459.968 54.9817 459.445 55.9519 458.228 56.4447V56.4755C459.414 56.7835 459.753 57.9385 459.83 59.0473C459.876 59.7403 459.861 61.0339 460.292 61.6499H457.874C457.581 60.9569 457.612 59.8943 457.489 59.0165C457.32 57.8615 456.873 57.3533 455.656 57.3533H453.239V61.6499H450.821ZM453.239 52.5331V55.6285H455.887C456.965 55.6285 457.551 55.1665 457.551 54.0577C457.551 52.9951 456.965 52.5331 455.887 52.5331H453.239ZM465.528 58.0001H467.869C467.869 59.4631 469.008 60.0329 470.302 60.0329C471.149 60.0329 472.442 59.7865 472.442 58.6623C472.442 57.4765 470.795 57.2763 469.178 56.8451C467.545 56.4139 465.897 55.7825 465.897 53.7189C465.897 51.4705 468.023 50.3925 470.009 50.3925C472.304 50.3925 474.414 51.3935 474.414 53.9345H472.073C471.996 52.6101 471.056 52.2713 469.901 52.2713C469.131 52.2713 468.238 52.5947 468.238 53.5187C468.238 54.3657 468.762 54.4735 471.518 55.1819C472.319 55.3821 474.783 55.8903 474.783 58.3851C474.783 60.4025 473.197 61.9117 470.209 61.9117C467.776 61.9117 465.497 60.7105 465.528 58.0001ZM476.222 61.6499V50.6543H478.64V61.6499H476.222ZM483.197 61.6499V52.6871H479.901V50.6543H488.91V52.6871H485.615V61.6499H483.197ZM493.294 61.6499L497.467 50.6543H499.947L504.058 61.6499H501.548L500.717 59.2013H496.605L495.742 61.6499H493.294ZM498.668 53.3647L497.236 57.3995H500.085L498.699 53.3647H498.668ZM505.007 61.6499V50.6543H508.41L510.982 58.2157H511.013L513.446 50.6543H516.849V61.6499H514.585V53.8575H514.555L511.86 61.6499H509.996L507.301 53.9345H507.27V61.6499H505.007ZM518.978 61.6499V50.6543H527.201V52.6871H521.396V55.0433H526.724V56.9221H521.396V59.6171H527.325V61.6499H518.978ZM531.397 61.6499V52.6871H528.101V50.6543H537.11V52.6871H533.815V61.6499H531.397Z" fill="#E86F26"/>
</svg>
